<?xml version="1.0" encoding="UTF-8"?><svg xmlns="http://www.w3.org/2000/svg" viewBox="0 0 384 383.06"><g id="a"/><g id="b"><g id="c"><g><path d="M.09,383.06C.09,256.56,.11,130.06,0,3.56,0,.4,.81,0,3.71,0,129.24,.09,254.76,.09,380.29,0c2.91,0,3.72,.4,3.71,3.56-.11,126.5-.09,253-.09,379.5H.09Zm323.14-125.69h0c0-3.24-.02-6.47-.02-9.7,0-48.66,0-97.33-.04-145.99,0-1.68,.57-3.5-.75-5.01-.46-.79-1.24-.73-1.98-.73-9.49-.01-18.98,.13-28.47-.1-3.44-.08-4.15,1.14-4.12,4.31,.15,14.7,0,29.41,.13,44.11,.03,2.7-.78,3.47-3.37,3.18-6.74-.76-13.47-.23-20.14,.76-19.97,2.98-36.33,12.14-47.6,29.09-9.34,14.05-11.72,29.73-10.14,46.43,2.32,24.35,16.58,43.2,39.92,50.27,25.63,7.77,50.55,3.71,74.98-5.7,2.05-.79,2.5-2.23,2.18-4.16,.18-2.28,.34-4.57-.59-6.76Zm-195.57-44.14c.54,.65,.83,.91,1,1.23,10.26,18.64,20.74,37.16,30.21,56.22,1.63,3.27,3.77,4.82,7.59,4.75,10.24-.2,20.48-.02,30.73-.11,1.89-.02,4.42,1.07,5.56-.88,1.25-2.13-.96-3.92-2-5.63-15.42-25.31-30.88-50.59-46.46-75.8-1.5-2.43-1.29-4.06,.12-6.36,14.8-24.22,29.48-48.51,44.18-72.79,.62-1.02,1.78-2.03,1.03-3.36-.75-1.33-2.2-.88-3.41-.88-9.37-.01-18.74,.17-28.1-.11-3.86-.11-5.76,1.39-7.43,4.7-9.33,18.42-19.7,36.31-28.69,54.91-.94,1.95-1.73,2.38-2.79,.13-.69-1.46-1.41-2.92-2.16-4.35-9.21-17.64-20.01-34.42-28.18-52.61-.71-1.59-2.08-2.64-3.8-2.65-11.74-.06-23.48-.07-35.22,0-2.37,.01-3.06,1.07-1.7,3.37,15.1,25.35,30.1,50.75,45.25,76.07,1.47,2.45,1.55,4.13,0,6.64-15.42,25.02-30.67,50.13-45.95,75.23-.68,1.12-2.04,2.24-1.19,3.68,.85,1.45,2.52,.68,3.8,.69,9.99,.07,19.99-.08,29.98,.11,3.08,.06,4.82-1.04,6.2-3.66,4.42-8.35,9.04-16.59,13.51-24.91,5.94-11.05,11.81-22.14,17.94-33.63Z" style="fill:#480137;"/><path d="M287.92,212.09c0,10.09-.2,20.19,.11,30.28,.11,3.58-1.1,4.82-4.39,5.09-9.46,.77-18.78,.67-27.17-4.56-9.28-5.79-12.65-14.92-14.01-25.19-2.37-17.97,4.85-31.18,21.41-38.53,6.82-3.03,14.02-3.11,21.31-2.21,2.18,.27,2.82,1.17,2.8,3.35-.12,10.59-.05,21.18-.05,31.78Z" style="fill:#490238;"/></g></g></g></svg>